<svg width="151" height="151" viewBox="0 0 151 151" fill="none" xmlns="http://www.w3.org/2000/svg">
<g clip-path="url(#clip0_9_249)">
<path fill-rule="evenodd" clip-rule="evenodd" d="M91.4237 72.0409C94.3588 71.6731 97.0438 70.2647 99.2025 67.4954C105.88 58.9286 104.532 49.8397 99.3402 41.6538C91.7581 29.7011 75.865 19.7168 65.6911 16.3925C65.2094 16.2345 64.6921 16.4986 64.536 16.9789C64.378 17.4606 64.6402 17.9791 65.1219 18.1371C74.9967 21.363 90.4329 31.0374 97.7921 42.6371C102.559 50.1536 103.889 58.4999 97.7545 66.3676C95.9305 68.7104 93.6606 69.8913 91.1797 70.2088C90.9473 68.5907 90.6723 67.0005 90.354 65.4414C89.4744 61.1379 85.1592 50.5379 79.5647 44.4869C75.5503 40.1473 70.8848 38.1474 66.3308 41.6145C63.8001 43.5422 63.0907 46.4943 63.7907 49.8748C64.7502 54.523 68.4523 60.0371 73.275 64.4022C77.2897 68.0371 82.0694 70.873 86.6252 71.8053C87.6268 72.0082 88.6178 72.1247 89.5888 72.1385C92.3859 94.6408 86.8569 121.546 74.6005 140.039C74.3228 140.462 74.4358 141.031 74.8596 141.31C75.2815 141.591 75.8509 141.475 76.1299 141.054C88.5848 122.259 94.2279 94.9373 91.4237 72.0409ZM89.3392 70.2904C89.1174 68.7703 88.8566 67.2753 88.5565 65.8087C87.7122 61.6851 83.5783 51.5307 78.2177 45.7333C74.9284 42.1751 71.1738 40.2324 67.4414 43.0738C65.4821 44.5672 65.0466 46.8857 65.5855 49.5037C66.1813 52.3831 67.934 55.6018 70.3552 58.6357C74.031 63.2418 79.2527 67.4165 84.4551 69.2865C86.1029 69.8797 87.7494 70.2373 89.3392 70.2904Z" fill="#4169e1"/>
<path fill-rule="evenodd" clip-rule="evenodd" d="M70.3648 106.093C75.1681 115.925 76.1573 129.365 74.6376 140.259C74.5677 140.76 74.9184 141.223 75.4194 141.293C75.9204 141.363 76.3851 141.014 76.455 140.513C78.0235 129.279 76.9641 115.425 72.013 105.288C71.7918 104.835 71.2421 104.646 70.7864 104.868C70.3325 105.09 70.1436 105.639 70.3648 106.093Z" fill="#4169e1"/>
<path fill-rule="evenodd" clip-rule="evenodd" d="M76.6641 140.601C80.4443 132.312 89.9271 124.714 98.4436 121.403C98.9162 121.22 99.152 120.688 98.9667 120.216C98.7833 119.744 98.2527 119.51 97.7801 119.693C88.8583 123.162 78.9561 131.156 74.9955 139.84C74.7847 140.3 74.9893 140.846 75.4491 141.057C75.9108 141.266 76.4546 141.063 76.6641 140.601Z" fill="#4169e1"/>
</g>
<defs>
<clipPath id="clip0_9_249">
<rect width="107.869" height="107.869" fill="white" transform="translate(150.568 87.5396) rotate(144.246)"/>
</clipPath>
</defs>
</svg>
