<svg width="209" height="143" viewBox="0 0 209 143" fill="none" xmlns="http://www.w3.org/2000/svg">
<path fill-rule="evenodd" clip-rule="evenodd" d="M154.735 41.6348C163.659 43.9617 170.142 48.514 176.543 53.4276C197.535 69.5563 201.578 88.1432 181.788 101.045C151.03 121.038 89.0721 124.683 45.7108 106.762C36.1059 102.802 22.9205 98.2458 14.8876 87.6774C7.41435 77.8499 9.87683 68.7276 16.0274 61.1557C22.3034 53.3854 32.4184 47.213 40.1941 43.5329C74.18 27.4901 136.672 20.0417 186.564 42.6628C187.593 43.1139 188.75 42.9985 189.204 42.4177C189.658 41.8369 189.277 41.0183 188.325 40.5845C136.968 17.3014 72.5314 24.774 37.5518 41.2836C27.8741 45.8766 14.687 54.2134 9.09972 64.6575C5.30698 71.8016 5.01063 79.9126 11.4749 88.4854C19.9999 99.7358 33.9779 104.717 44.1725 108.927C88.9365 127.432 153.002 123.747 184.719 103.087C206.017 89.2261 201.802 69.2597 179.226 51.9207C172.349 46.6052 165.209 41.7413 155.523 39.2163C154.455 38.9384 153.415 39.2553 153.261 39.9371C153.03 40.6016 153.744 41.3742 154.735 41.6348Z" fill="#4169e1"/>
</svg>
