<svg width="230" height="15" viewBox="0 0 230 15" fill="none" xmlns="http://www.w3.org/2000/svg">
<path fill-rule="evenodd" clip-rule="evenodd" d="M76.2498 1.2448C50.8866 0.952794 25.4199 2.01993 0.870386 6.50086C0.432381 6.5805 0.25055 6.73713 0.214713 6.77296C0.00500117 6.98533 -0.0176016 7.21096 0.00894415 7.39678C0.0248716 7.5096 0.132429 7.98609 0.720418 8.0352C1.12657 8.06838 4.0094 7.83611 5.12167 7.77638C10.3578 7.49633 15.5834 7.09682 20.8063 6.63492C32.6484 5.59167 44.4745 4.68912 56.3352 3.86752C62.9942 3.40563 69.6558 3.02336 76.3135 2.71011C92.3299 2.89726 108.307 3.62728 123.984 4.38118C117.753 4.76477 112.027 5.15366 107.279 5.40585C99.273 5.83058 91.2814 6.33229 83.2911 6.99328C79.1858 7.33174 75.0858 7.69941 70.9884 8.13343C70.5345 8.18254 69.5005 8.23298 69.0001 8.2927C68.7878 8.31659 68.6338 8.35509 68.5648 8.38164C68.1321 8.54887 68.0777 8.8913 68.0724 9.06385C68.0697 9.1687 68.1056 9.74078 68.8356 9.85227C102.778 15.0844 138.19 8.99749 172.255 14.0837C172.655 14.1434 173.029 13.8673 173.089 13.4665C173.149 13.067 172.873 12.6927 172.472 12.6329C140.388 7.84274 107.109 12.9648 74.9849 9.20455C77.7922 8.93246 80.6007 8.6869 83.4119 8.45463C91.3876 7.79497 99.3646 7.29458 107.358 6.86985C115.401 6.44379 126.274 5.61157 137.656 5.0873C147.423 5.63148 157.185 6.24203 166.954 6.75968C171.075 6.97735 175.198 7.15787 179.318 7.37953C181.012 7.46978 185.369 7.84806 186.001 7.70736C186.492 7.5972 186.61 7.24547 186.639 7.06895C186.67 6.87782 186.651 6.64022 186.428 6.41326C186.359 6.34158 186.152 6.19293 185.727 6.07082C174.24 2.78047 155.429 2.83223 137.812 3.62728C134.023 3.41491 130.233 3.21316 126.443 3.03132C117.765 2.61323 108.991 2.1938 100.168 1.8633C125.034 1.24877 149.913 1.4253 174.798 1.86995C185.247 2.05709 213.411 3.1853 224.503 4.18209C224.367 4.32146 224.288 4.51524 224.297 4.72628C224.316 5.12977 224.659 5.44301 225.064 5.42443C227.352 5.31825 228.676 5.18287 229.2 5.0435C229.527 4.95723 229.704 4.81919 229.787 4.72893C229.988 4.51126 230.026 4.27765 229.986 4.05599C229.961 3.91795 229.898 3.76664 229.755 3.62728C229.659 3.53171 229.426 3.38572 229.028 3.28617C224.667 2.20177 187.266 0.626269 174.825 0.403284C141.949 -0.183378 109.087 -0.302822 76.2498 1.2448ZM176.835 5.78146C170.41 4.90944 162.879 4.60283 155.023 4.62274C159.025 4.85502 163.028 5.08199 167.032 5.29436C170.299 5.46823 173.567 5.61688 176.835 5.78146ZM45.9505 3.13884C37.5222 3.76001 29.1032 4.43162 20.6775 5.1749C19.7046 5.25985 18.7331 5.34347 17.7601 5.42576C27.0777 4.28429 36.4922 3.55827 45.9505 3.13884Z" fill="#4169e1"/>
</svg>
